<svg width="34" height="44" viewBox="0 0 34 44" fill="none" xmlns="http://www.w3.org/2000/svg">
<path fill-rule="evenodd" clip-rule="evenodd" d="M17 12C14.262 12 12 14.2829 12 17.1519C12 17.7985 12.1152 18.4149 12.3244 18.982C12.3977 19.1807 12.4785 19.3887 12.5624 19.6049C13.0015 20.7359 13.5278 22.0914 13.5278 23.5035V24C13.5278 24.5523 13.0801 25 12.5278 25C11.9755 25 11.5278 24.5523 11.5278 24V23.5035C11.5278 22.4996 11.1674 21.56 10.7345 20.4311L10.7345 20.431C10.6414 20.1884 10.545 19.937 10.4481 19.6743C10.1581 18.8883 10 18.0377 10 17.1519C10 13.2257 13.1106 10 17 10C20.8894 10 24 13.2257 24 17.1519C24 18.0377 23.8419 18.8883 23.5519 19.6743C23.455 19.937 23.3586 20.1884 23.2655 20.4311C22.8326 21.56 22.4722 22.4996 22.4722 23.5035V24C22.4722 24.5523 22.0245 25 21.4722 25C20.9199 25 20.4722 24.5523 20.4722 24V23.5035C20.4722 22.0914 20.9985 20.7359 21.4376 19.6049L21.4376 19.6049L21.4376 19.6049C21.5215 19.3887 21.6023 19.1807 21.6756 18.982C21.8848 18.4149 22 17.7985 22 17.1519C22 14.2829 19.738 12 17 12ZM12 28C12 27.4477 12.4477 27 13 27H21C21.5523 27 22 27.4477 22 28C22 28.5523 21.5523 29 21 29H13C12.4477 29 12 28.5523 12 28ZM15 31C14.4477 31 14 31.4477 14 32C14 32.5523 14.4477 33 15 33H19C19.5523 33 20 32.5523 20 32C20 31.4477 19.5523 31 19 31H15Z" fill="#CBD255"/>
<path d="M15.6919 41.869C16.4431 42.5185 17.5569 42.5185 18.3081 41.869L27.8106 33.653C31.1061 30.8038 33 26.6626 33 22.3062V11.2427C33 9.07351 31.271 7.29963 29.1026 7.24401L26.2553 7.17098C24.1955 7.11814 22.2354 6.27257 20.7836 4.81044L18.4192 2.42926C17.637 1.64154 16.363 1.64154 15.5808 2.42926L13.2164 4.81044C11.7645 6.27258 9.80452 7.11814 7.7447 7.17098L4.89744 7.24401C2.72896 7.29963 1 9.07351 1 11.2427V22.3062C1 26.6626 2.89394 30.8038 6.18938 33.653L15.6919 41.869Z" stroke="black" stroke-width="2" stroke-linecap="round" stroke-linejoin="round"/>
</svg>
