<svg width="34" height="44" viewBox="0 0 34 44" fill="none" xmlns="http://www.w3.org/2000/svg">
<path d="M15.6919 41.869C16.4431 42.5185 17.5569 42.5185 18.3081 41.869L27.8106 33.653C31.1061 30.8038 33 26.6626 33 22.3062V11.2427C33 9.07351 31.271 7.29963 29.1026 7.24401L26.2553 7.17098C24.1955 7.11814 22.2354 6.27257 20.7836 4.81044L18.4192 2.42926C17.637 1.64154 16.363 1.64154 15.5808 2.42926L13.2164 4.81044C11.7645 6.27258 9.80452 7.11814 7.7447 7.17098L4.89744 7.24401C2.72896 7.29963 1 9.07351 1 11.2427V22.3062C1 26.6626 2.89394 30.8038 6.18938 33.653L15.6919 41.869Z" stroke="black" stroke-width="2" stroke-linecap="round" stroke-linejoin="round"/>
<path d="M27 16L16.7401 26.5298C15.955 27.3355 14.6602 27.3355 13.8751 26.5298L8 20.5" stroke="#CBD255" stroke-width="2" stroke-linecap="round" stroke-linejoin="round"/>
</svg>
