<svg width="34" height="44" viewBox="0 0 34 44" fill="none" xmlns="http://www.w3.org/2000/svg">
<path d="M16.1751 11.2036C16.5723 10.624 17.4277 10.624 17.8249 11.2036L20.6784 15.3672C20.8084 15.5569 20.9998 15.696 21.2205 15.761L26.062 17.1882C26.736 17.3869 27.0003 18.2004 26.5718 18.7572L23.4938 22.7577C23.3536 22.94 23.2804 23.1651 23.2868 23.395L23.4255 28.4406C23.4448 29.143 22.7529 29.6457 22.0909 29.4103L17.335 27.7191C17.1183 27.6421 16.8817 27.6421 16.665 27.7191L11.9091 29.4103C11.2471 29.6457 10.5552 29.143 10.5745 28.4406L10.7133 23.395C10.7196 23.1651 10.6464 22.94 10.5062 22.7577L7.42816 18.7572C6.99969 18.2004 7.26401 17.3869 7.93796 17.1882L12.7795 15.761C13.0002 15.696 13.1916 15.5569 13.3216 15.3672L16.1751 11.2036Z" stroke="#CBD255" stroke-width="2" stroke-linejoin="round"/>
<path d="M15.6919 41.869C16.4431 42.5185 17.5569 42.5185 18.3081 41.869L27.8106 33.653C31.1061 30.8038 33 26.6626 33 22.3062V11.2427C33 9.07351 31.271 7.29963 29.1026 7.24401L26.2553 7.17098C24.1955 7.11814 22.2354 6.27257 20.7836 4.81044L18.4192 2.42926C17.637 1.64154 16.363 1.64154 15.5808 2.42926L13.2164 4.81044C11.7645 6.27258 9.80452 7.11814 7.7447 7.17098L4.89744 7.24401C2.72896 7.29963 1 9.07351 1 11.2427V22.3062C1 26.6626 2.89394 30.8038 6.18938 33.653L15.6919 41.869Z" stroke="black" stroke-width="2" stroke-linecap="round" stroke-linejoin="round"/>
</svg>
