<svg width="477" height="359" viewBox="0 0 477 359" fill="none" xmlns="http://www.w3.org/2000/svg">
<path d="M476.233 208.171C476.233 239.307 451.196 264.54 420.321 264.54C389.446 264.54 364.409 239.307 364.409 208.171C364.409 177.036 389.446 151.802 420.321 151.802C451.196 151.802 476.233 177.036 476.233 208.171Z" stroke="#283220"/>
<ellipse cx="420.322" cy="208.171" rx="45.0347" ry="45.3996" stroke="#283220" stroke-linecap="round" stroke-linejoin="round" stroke-dasharray="0.25 5"/>
<path d="M420.795 277.465V330.033H102.349V287.023H1.16309" stroke="#283220"/>
<path d="M284.717 329.555C284.717 345.383 271.99 358.206 256.3 358.206C240.609 358.206 227.883 345.383 227.883 329.555C227.883 313.728 240.609 300.904 256.3 300.904C271.99 300.904 284.717 313.728 284.717 329.555Z" fill="#CFF1B2" stroke="#283220"/>
<path d="M425.984 279.377C425.984 282.271 423.657 284.611 420.795 284.611C417.933 284.611 415.606 282.271 415.606 279.377C415.606 276.482 417.933 274.142 420.795 274.142C423.657 274.142 425.984 276.482 425.984 279.377Z" fill="#CFF1B2" stroke="#283220"/>
<path d="M425.984 330.033C425.984 332.928 423.657 335.268 420.795 335.268C417.933 335.268 415.606 332.928 415.606 330.033C415.606 327.138 417.933 324.798 420.795 324.798C423.657 324.798 425.984 327.138 425.984 330.033Z" fill="#CFF1B2" stroke="#283220"/>
<path d="M107.423 287.023C107.423 289.918 105.096 292.258 102.234 292.258C99.3727 292.258 97.0459 289.918 97.0459 287.023C97.0459 284.128 99.3727 281.788 102.234 281.788C105.096 281.788 107.423 284.128 107.423 287.023Z" fill="#CFF1B2" stroke="#283220"/>
<path d="M108.371 330.033C108.371 332.928 106.045 335.268 103.183 335.268C100.321 335.268 97.9941 332.928 97.9941 330.033C97.9941 327.138 100.321 324.798 103.183 324.798C106.045 324.798 108.371 327.138 108.371 330.033Z" fill="#CFF1B2" stroke="#283220"/>
<path d="M0.825195 181.887H280.477V262.173H361.065" stroke="#283220"/>
<path d="M154.38 0.829365V85.5337H420.795V141.744" stroke="#283220"/>
<path d="M262.911 88.6985C262.911 104.526 250.185 117.35 234.494 117.35C218.804 117.35 206.077 104.526 206.077 88.6985C206.077 72.871 218.804 60.0472 234.494 60.0472C250.185 60.0472 262.911 72.871 262.911 88.6985Z" fill="#CFF1B2" stroke="#283220"/>
<rect x="219.798" y="71.0165" width="28.4429" height="34.4081" rx="3" stroke="#283220"/>
<path d="M231.176 100.3C231.477 99.7421 232.005 99.2764 232.474 98.8672C233.068 98.3488 233.813 97.7784 234.637 97.7784C235.446 97.7784 235.461 99.0263 235.461 99.6295C235.461 100.138 235.461 100.646 235.461 101.154C235.461 101.25 235.418 101.473 235.467 101.561C235.57 101.742 236.125 101.261 236.187 101.217C237.075 100.59 237.925 99.635 238.976 99.2971C239.417 99.1552 239.352 100.512 239.452 100.741C239.702 101.311 240.568 101.22 241.048 101.177C241.594 101.128 242.071 101.078 242.553 100.816" stroke="#283220" stroke-linecap="round"/>
<path d="M254.274 79.6115L236.517 97.5125C236.275 97.7567 235.882 97.7567 235.64 97.5125L233.199 95.0518C232.957 94.8076 232.957 94.4117 233.199 94.1675L250.956 76.2664C251.872 75.3427 253.358 75.3427 254.274 76.2664C255.191 77.1901 255.191 78.6878 254.274 79.6115Z" fill="#CFF1B2" stroke="#283220" stroke-linejoin="round"/>
<line y1="-0.5" x2="5.71167" y2="-0.5" transform="matrix(0.704247 0.709955 -0.704247 0.709955 248.146 78.3895)" stroke="#283220"/>
<line y1="-0.5" x2="5.71168" y2="-0.5" transform="matrix(0.704247 0.709956 -0.704247 0.709956 244.57 81.9938)" stroke="#283220"/>
<path d="M239.767 85.1845L247.87 77.0168L249.282 76.7213" stroke="#283220" stroke-linecap="round"/>
<path d="M232.021 98.8629L233.485 94.2554L236.592 97.3878L232.021 98.8629Z" fill="#CFF1B2" stroke="#283220" stroke-linejoin="round"/>
<line x1="225.039" y1="76.2512" x2="243.001" y2="76.2512" stroke="#283220" stroke-linecap="round"/>
<line x1="225.039" y1="83.8974" x2="237.312" y2="83.8974" stroke="#283220" stroke-linecap="round"/>
<line x1="225.039" y1="80.0743" x2="241.105" y2="80.0743" stroke="#283220" stroke-linecap="round"/>
<line x1="225.039" y1="87.7206" x2="235.416" y2="87.7206" stroke="#283220" stroke-linecap="round"/>
<line x1="225.039" y1="91.5437" x2="230.676" y2="91.5437" stroke="#283220" stroke-linecap="round"/>
<line x1="225.039" y1="95.3668" x2="226.883" y2="95.3668" stroke="#283220" stroke-linecap="round"/>
<path d="M425.984 136.01C425.984 138.904 423.657 141.244 420.795 141.244C417.933 141.244 415.606 138.904 415.606 136.01C415.606 133.115 417.933 130.775 420.795 130.775C423.657 130.775 425.984 133.115 425.984 136.01Z" fill="#CFF1B2" stroke="#283220"/>
<path d="M425.984 84.3975C425.984 87.2924 423.657 89.6322 420.795 89.6322C417.933 89.6322 415.606 87.2924 415.606 84.3975C415.606 81.5027 417.933 79.1629 420.795 79.1629C423.657 79.1629 425.984 81.5027 425.984 84.3975Z" fill="#CFF1B2" stroke="#283220"/>
<path d="M285.665 181.887C285.665 184.782 283.338 187.122 280.477 187.122C277.615 187.122 275.288 184.782 275.288 181.887C275.288 178.992 277.615 176.652 280.477 176.652C283.338 176.652 285.665 178.992 285.665 181.887Z" fill="#CFF1B2" stroke="#283220"/>
<path d="M285.665 261.217C285.665 264.112 283.338 266.451 280.477 266.451C277.615 266.451 275.288 264.112 275.288 261.217C275.288 258.322 277.615 255.982 280.477 255.982C283.338 255.982 285.665 258.322 285.665 261.217Z" fill="#CFF1B2" stroke="#283220"/>
<path d="M363.409 262.173C363.409 265.067 361.083 267.407 358.221 267.407C355.359 267.407 353.032 265.067 353.032 262.173C353.032 259.278 355.359 256.938 358.221 256.938C361.083 256.938 363.409 259.278 363.409 262.173Z" fill="#CFF1B2" stroke="#283220"/>
<path d="M159.569 84.3975C159.569 87.2924 157.242 89.6322 154.38 89.6322C151.518 89.6322 149.191 87.2924 149.191 84.3975C149.191 81.5027 151.518 79.1629 154.38 79.1629C157.242 79.1629 159.569 81.5027 159.569 84.3975Z" fill="#CFF1B2" stroke="#283220"/>
<path d="M166.205 180.453C166.205 196.281 153.479 209.105 137.788 209.105C122.098 209.105 109.371 196.281 109.371 180.453C109.371 164.626 122.098 151.802 137.788 151.802C153.479 151.802 166.205 164.626 166.205 180.453Z" fill="#CFF1B2" stroke="#283220"/>
<path d="M420.794 187.622C419.355 189.323 414.169 192.725 404.946 192.725C404.909 192.725 404.946 195.78 404.946 199.337C404.946 202.894 401.322 221.49 420.685 228.72" stroke="#283220" stroke-linecap="round"/>
<path d="M122.145 179.02L132.1 164.683L143.477 177.586L152.01 170.418" stroke="#283220" stroke-linecap="round"/>
<path d="M420.795 187.622C422.235 189.323 427.42 192.725 436.644 192.725C436.681 192.725 436.644 195.78 436.644 199.337C436.644 202.894 440.268 221.49 420.905 228.72" stroke="#283220" stroke-linecap="round"/>
<circle r="10.4474" transform="matrix(0.704248 -0.709954 0.704248 0.709954 138.9 184.193)" fill="#CFF1B2" stroke="#283220"/>
<line x1="134.021" y1="182.387" x2="134.021" y2="186.166" stroke="#283220" stroke-linecap="round"/>
<line x1="143.502" y1="182.387" x2="143.502" y2="186.166" stroke="#283220" stroke-linecap="round"/>
<line x1="138.762" y1="179.519" x2="138.762" y2="188.077" stroke="#283220" stroke-linecap="round"/>
<line x1="0.5" y1="-0.5" x2="7.57754" y2="-0.5" transform="matrix(-0.704249 -0.709953 0.704249 -0.709953 152.634 196.01)" stroke="#283220" stroke-linecap="round"/>
<path d="M125.437 179.02C125.437 180.859 123.959 182.343 122.145 182.343C120.33 182.343 118.853 180.859 118.853 179.02C118.853 177.181 120.33 175.697 122.145 175.697C123.959 175.697 125.437 177.181 125.437 179.02Z" fill="#CFF1B2" stroke="#283220"/>
<path d="M135.866 164.683C135.866 166.522 134.388 168.006 132.574 168.006C130.759 168.006 129.281 166.522 129.281 164.683C129.281 162.844 130.759 161.36 132.574 161.36C134.388 161.36 135.866 162.844 135.866 164.683Z" fill="#CFF1B2" stroke="#283220"/>
<path d="M155.776 170.418C155.776 172.257 154.298 173.741 152.484 173.741C150.669 173.741 149.191 172.257 149.191 170.418C149.191 168.579 150.669 167.095 152.484 167.095C154.298 167.095 155.776 168.579 155.776 170.418Z" fill="#CFF1B2" stroke="#283220"/>
<path d="M252.165 331.934V328.2C252.165 325.622 254.232 323.532 256.781 323.532C259.33 323.532 261.397 325.622 261.397 328.2V331.934" stroke="#283220"/>
<ellipse cx="256.781" cy="336.135" rx="1.38477" ry="1.40024" stroke="#283220"/>
<path d="M256.781 337.535V339.868" stroke="#283220" stroke-linecap="round"/>
<rect x="249.396" y="331.934" width="14.7709" height="11.2018" rx="2" stroke="#283220"/>
<path d="M245.397 335.768H243.975C240.572 335.768 237.812 332.986 237.812 329.555C237.812 326.609 239.846 324.143 242.575 323.504C242.56 323.292 242.553 323.079 242.553 322.865C242.553 317.85 246.586 313.785 251.56 313.785C255.216 313.785 258.363 315.981 259.775 319.135C260.596 318.768 261.506 318.564 262.463 318.564C265.471 318.564 268.011 320.58 268.826 323.346C272.137 323.452 274.788 326.191 274.788 329.555C274.788 332.986 272.029 335.768 268.626 335.768H268.152" stroke="#283220" stroke-linecap="round" stroke-linejoin="round"/>
<path d="M425.536 202.184C425.536 202.124 425.514 202.067 425.475 202.025C425.436 201.982 425.383 201.958 425.328 201.958C424.571 201.958 423.814 201.958 423.467 201.958C423.301 201.958 420.727 203.976 420.058 204.503C420.043 204.515 420.025 204.522 420.007 204.524C419.988 204.526 419.97 204.522 419.953 204.513C419.937 204.504 419.923 204.49 419.913 204.473C419.903 204.455 419.898 204.436 419.898 204.416C419.898 204.018 419.891 203.125 419.891 202.32C419.891 202.038 419.785 201.975 419.57 201.975C418.368 201.975 418.528 201.975 417.327 201.975C417.042 201.975 417.016 202.153 417.016 202.44C417.012 206.551 417.004 209.936 417.004 214.058C417 214.103 417.005 214.148 417.019 214.19C417.033 214.232 417.056 214.27 417.085 214.301C417.115 214.332 417.15 214.355 417.189 214.369C417.228 214.383 417.27 214.387 417.31 214.381H419.579C419.795 214.381 419.883 214.285 419.883 214.071C419.883 211.438 419.883 209.22 419.883 206.586C419.883 206.532 419.883 206.128 419.889 205.865C419.889 205.835 419.894 205.805 419.905 205.777C419.916 205.749 419.931 205.724 419.951 205.703C419.971 205.682 419.994 205.665 420.02 205.653C420.045 205.642 420.073 205.636 420.101 205.636H420.867C421.934 205.636 423.767 205.626 425.321 205.618C425.349 205.62 425.377 205.615 425.402 205.604C425.428 205.594 425.452 205.578 425.472 205.557C425.492 205.536 425.508 205.511 425.519 205.484C425.53 205.456 425.536 205.426 425.536 205.396V202.184Z" fill="#283220"/>
</svg>
